<?xml version="1.0" standalone="no"?><!DOCTYPE svg PUBLIC "-//W3C//DTD SVG 1.1//EN" "http://www.w3.org/Graphics/SVG/1.1/DTD/svg11.dtd"><svg t="1596200087471" class="icon" viewBox="0 0 1024 1024" version="1.1" xmlns="http://www.w3.org/2000/svg" p-id="2004" xmlns:xlink="http://www.w3.org/1999/xlink" width="200" height="200"><defs><style type="text/css"></style></defs><path d="M928 0H96A96.273067 96.273067 0 0 0 0 96v832A96.290133 96.290133 0 0 0 96 1024h832A96.290133 96.290133 0 0 0 1024 928V96A96.290133 96.290133 0 0 0 928 0z m0 0" fill="#3397F9" p-id="2005"></path><path d="M766.395733 436.804267a125.166933 125.166933 0 0 1-8.004266 20.804266c-22.391467 49.595733-81.595733 145.595733-81.595734 145.595734l-17.6128 30.395733h83.2l-160 214.408533 36.795734-145.595733h-65.604267l22.408533-96c-19.2 4.795733-40.004267 11.195733-65.604266 19.2 0 0-35.208533 20.804267-100.8128-40.004267 0 0-44.8-40.004267-19.2-49.595733a670.993067 670.993067 0 0 1 86.408533-14.404267c44.8-6.4 72.004267-9.591467 72.004267-9.591466s-139.195733 1.604267-171.195734-3.191467-73.591467-60.808533-83.2-108.8c0 0-14.404267-27.204267 28.808534-14.404267s222.395733 49.6128 222.395733 49.6128-233.591467-72.004267-247.978667-89.6c-16.008533-17.595733-44.8-96-41.608533-143.991466a9.813333 9.813333 0 0 1 14.404267-8.004267s172.8 79.991467 289.604266 123.204267c118.391467 41.608533 220.791467 64 206.3872 119.995733z m0 0" fill="#FFFFFF" p-id="2006"></path></svg>